<?xml version="1.0" encoding="UTF-8"?>
<svg version="1.1" xmlns="http://www.w3.org/2000/svg" width="512" height="512">
<path d="M0 0 C0 98.01 0 196.02 0 297 C-5.47913448 293.9560364 -10.58943601 291.03221421 -15.6875 287.5 C-78.0631038 245.27947806 -151.98544193 215.42232918 -226 202 C-223.84618819 209.60211314 -221.23950731 216.97863934 -218.45703125 224.37109375 C-218.01584961 225.55115997 -217.57466797 226.7312262 -217.12011719 227.947052 C-216.17586813 230.47152308 -215.23049967 232.99553825 -214.28311157 235.51882935 C-212.79869174 239.47272576 -211.31924373 243.4284709 -209.84057617 247.38452148 C-206.89713492 255.2576287 -203.94885929 263.12892081 -201 271 C-198.27436126 278.27575445 -195.55058227 285.552189 -192.83334351 292.83108521 C-191.83721752 295.4963647 -190.83728839 298.16019563 -189.8371582 300.82397461 C-189.2310843 302.44637778 -188.6251971 304.06885071 -188.01953125 305.69140625 C-187.75487061 306.39306915 -187.49020996 307.09473206 -187.2175293 307.81765747 C-185.22517334 313.17420153 -183.652757 318.49081001 -182 324 C-200.15 324 -218.3 324 -237 324 C-239.3925 319.33875 -241.785 314.6775 -244.25 309.875 C-249.58374143 299.51403533 -255.00242068 289.21452942 -260.62988281 279.00927734 C-264.35979194 272.22659268 -267.94790763 265.37728782 -271.5 258.5 C-276.03706313 249.71671975 -280.69143929 241.01068119 -285.45849609 232.3503418 C-290.04791368 223.98261345 -294.44580436 215.51894616 -298.8125 207.03320312 C-299.58980469 205.5259668 -299.58980469 205.5259668 -300.3828125 203.98828125 C-300.84059082 203.09665283 -301.29836914 202.20502441 -301.77001953 201.28637695 C-303.0446721 198.83082336 -303.0446721 198.83082336 -305 196 C-308.74715592 195.61452702 -312.43749436 195.62388837 -316.203125 195.6015625 C-320.6711018 194.89367317 -323.1193617 193.36145385 -326 190 C-327.62481559 187.66622413 -328.90013404 185.25088895 -330.125 182.6875 C-330.46337891 181.9860083 -330.80175781 181.2845166 -331.15039062 180.56176758 C-339.63418635 162.25989901 -340.62279599 143.0866809 -334 124 C-333.63777344 122.91847656 -333.27554687 121.83695312 -332.90234375 120.72265625 C-330.2722026 113.6524802 -326.69651116 108.01722008 -321 103 C-318.24006252 102.08002084 -316.562056 101.86667808 -313.71337891 101.84228516 C-312.84511978 101.83187698 -311.97686066 101.82146881 -311.08229065 101.81074524 C-309.66870522 101.80001228 -309.66870522 101.80001228 -308.2265625 101.7890625 C-306.19863897 101.76356913 -304.17072569 101.73725043 -302.14282227 101.71020508 C-301.07879181 101.69696198 -300.01476135 101.68371887 -298.91848755 101.67007446 C-243.60110329 100.91300423 -192.00490088 90.39154212 -140 72 C-138.44466553 71.45110107 -138.44466553 71.45110107 -136.85791016 70.89111328 C-102.30506408 58.54159046 -68.91909635 42.44667502 -37.51660156 23.51464844 C-35.25615223 22.15416845 -32.98685446 20.81094462 -30.7109375 19.4765625 C-21.11040508 13.82748347 -11.52444668 7.9391679 -2.63671875 1.2109375 C-1 0 -1 0 0 0 Z " fill="#000000" transform="translate(338,94)"/>
<path d="M0 0 C10.98700227 1.09870023 19.49473272 3.62941955 27 12 C35.58040937 23.30972877 39.16410149 35.39807081 37.3125 49.5 C35.07282987 62.12224688 29.62508572 72.50909228 19 80 C12.2888561 83.87562369 8.09069096 85 0 85 C0 56.95 0 28.9 0 0 Z " fill="#000000" transform="translate(359,200)"/>
<path d="M0 0 C2.4621582 1.13012695 2.4621582 1.13012695 5.05078125 2.61328125 C6.01395264 3.15799072 6.97712402 3.7027002 7.96948242 4.26391602 C8.96955322 4.83682373 9.96962402 5.40973145 11 6 C12.98068021 7.10092277 14.9624623 8.19986536 16.9453125 9.296875 C27.69088707 15.29304337 38.41043139 21.3197504 48.98046875 27.62109375 C51.85959148 29.33627017 54.76035287 31.00746118 57.67578125 32.66015625 C58.45115234 33.10391602 59.22652344 33.54767578 60.02539062 34.00488281 C61.50262012 34.84946449 62.98413694 35.68661089 64.47070312 36.51464844 C69.71472588 39.53262668 73.28094279 42.36345688 74.9375 48.4375 C75.02408684 53.37295003 73.56920032 56.18938425 70.375 59.875 C66.50737159 61.70703451 63.19061498 61.77195539 59 61 C55.10766259 59.38347551 51.60624228 57.16897181 48 55 C46.01580617 53.89130828 44.02152573 52.80212172 42.02685547 51.71240234 C31.84745768 46.13898565 21.82949866 40.2887511 11.82421875 34.41015625 C8.17480669 32.26608918 4.51380099 30.14657966 0.83203125 28.05859375 C-0.33863892 27.38860352 -0.33863892 27.38860352 -1.53295898 26.70507812 C-2.95892047 25.88979434 -4.38912787 25.081869 -5.82446289 24.28320312 C-11.0485376 21.27550372 -14.32968155 18.4578343 -15.9375 12.5625 C-16.02408684 7.62704997 -14.56920032 4.81061575 -11.375 1.125 C-7.4815596 -0.71926124 -4.21509793 -0.72532025 0 0 Z " fill="#000000" transform="translate(408,302)"/>
<path d="M0 0 C3.12068856 1.79273598 4.54965052 3.24259405 6.375 6.3125 C7.22305381 9.95913137 6.95418711 12.37408898 6 16 C2.00590343 21.94223755 -3.08877212 24.66507832 -9.3125 28 C-11.39025089 29.14284577 -13.46704427 30.28743375 -15.54296875 31.43359375 C-16.6107959 32.01995605 -17.67862305 32.60631836 -18.77880859 33.21044922 C-23.9423565 36.07908695 -29.03237169 39.07032672 -34.125 42.0625 C-36.11166872 43.22448927 -38.09864666 44.38595003 -40.0859375 45.546875 C-41.06014648 46.11599609 -42.03435547 46.68511719 -43.03808594 47.27148438 C-47.93569085 50.12963166 -52.83796119 52.97922504 -57.75 55.8125 C-58.62543457 56.32240479 -59.50086914 56.83230957 -60.40283203 57.35766602 C-61.21349121 57.82358154 -62.02415039 58.28949707 -62.859375 58.76953125 C-63.56545898 59.17792236 -64.27154297 59.58631348 -64.99902344 60.00708008 C-69.39444504 62.18816593 -72.46204409 62.08392623 -77.09765625 60.7890625 C-80.14174209 59.5264232 -81.39503013 57.82474697 -83 55 C-84.35783795 50.83596362 -84.19563626 47.68946453 -82.24633789 43.703125 C-77.49966637 37.21678209 -67.55989259 33.36552732 -60.72457886 29.50848389 C-57.63537223 27.76518359 -54.5522731 26.01114005 -51.46875 24.2578125 C-50.84387192 23.9028067 -50.21899384 23.5478009 -49.57518005 23.18203735 C-42.37209348 19.08417512 -35.22206132 14.89632067 -28.07983398 10.69335938 C-25.39312267 9.1171937 -22.69944848 7.55424277 -20 6 C-19.02546875 5.43651855 -18.0509375 4.87303711 -17.046875 4.29248047 C-16.08136719 3.74736816 -15.11585938 3.20225586 -14.12109375 2.640625 C-13.25540771 2.14852539 -12.38972168 1.65642578 -11.49780273 1.14941406 C-7.6313749 -0.62980031 -4.13594729 -0.97365359 0 0 Z " fill="#000000" transform="translate(476,119)"/>
<path d="M0 0 C1.27608124 -0.01248528 1.27608124 -0.01248528 2.57794189 -0.02522278 C5.39461828 -0.04934896 8.21106322 -0.05809801 11.02783203 -0.06469727 C12.98454865 -0.07366152 14.94126456 -0.08278332 16.89797974 -0.09205627 C21.00199043 -0.10855588 25.10591944 -0.11624817 29.20996094 -0.11914062 C34.46833496 -0.1245258 39.72594127 -0.16220734 44.98409843 -0.20788479 C49.02644655 -0.23762992 53.06860923 -0.24486363 57.11105728 -0.24586678 C59.0495569 -0.25007404 60.98805683 -0.2625286 62.92644882 -0.28338432 C65.63903978 -0.3102465 68.34984387 -0.30548914 71.0625 -0.29296875 C71.86267548 -0.30780304 72.66285095 -0.32263733 73.48727417 -0.33792114 C77.62401736 -0.28355966 79.40892772 0.09698021 82.63552856 2.78135681 C83.30381683 3.6146199 83.9721051 4.447883 84.66064453 5.30639648 C85.15564453 5.80139648 85.15564453 5.80139648 85.66064453 6.30639648 C86.19800325 11.06334255 86.34208569 15.04835127 84.03564453 19.30639648 C79.19626752 23.38166134 73.84663576 23.60217556 67.74682617 23.58105469 C66.97690842 23.58616562 66.20699066 23.59127655 65.41374207 23.59654236 C62.88268134 23.61037949 60.3518947 23.60948612 57.82080078 23.60717773 C56.05252482 23.61106774 54.28424979 23.61540304 52.51597595 23.62016296 C48.81490038 23.62761241 45.11392023 23.62734304 41.4128418 23.62207031 C36.68067765 23.6162757 31.94890491 23.63321261 27.21680546 23.65641499 C23.5664188 23.67117846 19.91612587 23.6720205 16.26571465 23.66890526 C14.52148094 23.6694171 12.7772418 23.67462902 11.03303719 23.68471718 C8.58972169 23.69711597 6.1471617 23.69026987 3.70385742 23.67871094 C2.6336586 23.69017654 2.6336586 23.69017654 1.5418396 23.70187378 C-3.5255946 23.6491436 -6.91198822 22.59710577 -11.33935547 20.30639648 C-14.39778206 16.8533342 -14.80901023 13.69530238 -14.63232422 9.23608398 C-14.19981399 6.38728328 -13.11656214 4.54436044 -11.33935547 2.30639648 C-7.52452614 -0.23682307 -4.42301762 0.00365552 0 0 Z " fill="#000000" transform="translate(426.33935546875,229.693603515625)"/>
</svg>
